<?xml version="1.0" encoding="UTF-8" standalone="no"?>
<!DOCTYPE svg PUBLIC "-//W3C//DTD SVG 1.1//EN" "http://www.w3.org/Graphics/SVG/1.1/DTD/svg11.dtd">
<!-- Created with Vectornator (http://vectornator.io/) -->
<svg height="60" stroke-miterlimit="10" style="fill-rule:nonzero;clip-rule:evenodd;stroke-linecap:round;stroke-linejoin:round;" version="1.1" viewBox="0 0 280 280" width="60" xml:space="preserve" xmlns="http://www.w3.org/2000/svg" xmlns:vectornator="http://vectornator.io" xmlns:xlink="http://www.w3.org/1999/xlink">
<defs/>
<g id="Calque-1" vectornator:layerName="Calque 1">
<path d="M141.687 35.1587C147.524 35.8717 153.869 37.2978 160.722 39.437C167.575 41.5762 175.062 45.1414 183.184 50.1328C191.306 55.1242 198.285 60.7098 204.123 66.8896C209.96 73.0694 214.148 78.2985 216.686 82.5768C219.224 86.8551 221.508 91.49 223.539 96.4814C225.569 101.473 228.361 104.563 231.914 105.751C235.468 106.94 239.275 109.554 243.336 113.595C247.397 117.635 250.188 121.676 251.711 125.717C253.234 129.757 253.996 133.679 253.996 137.482C253.996 141.285 253.234 145.207 251.711 149.247C250.188 153.288 248.285 156.616 246.001 159.23C243.716 161.845 240.798 164.222 237.244 166.361C233.691 168.5 229.376 169.926 224.3 170.639C219.224 171.352 216.432 171.946 215.925 172.422C215.417 172.897 213.514 175.63 210.214 180.622C206.915 185.613 203.615 189.654 200.316 192.744C197.016 195.834 193.844 200.231 190.798 205.935C187.752 211.64 183.311 216.869 177.473 221.622C171.636 226.376 165.291 230.417 158.438 233.744C151.585 237.072 144.986 239.686 138.641 241.588C132.296 243.489 125.063 245.034 116.941 246.223C108.819 247.411 100.951 247.887 93.337 247.649C85.7228 247.411 80.266 246.817 76.9666 245.866C73.6671 244.916 69.7331 243.133 65.1646 240.518C60.5961 237.904 56.7891 234.933 53.7434 231.605C50.6978 228.278 47.5252 223.88 44.2257 218.414C40.9263 212.947 39.1496 209.382 38.8958 207.718C38.642 206.054 39.0227 204.509 40.0379 203.083C41.0532 201.657 40.1648 197.973 37.373 192.031C34.5811 186.089 32.17 178.483 30.1396 169.213C28.1091 159.943 26.8401 150.555 26.3325 141.047C25.8249 131.54 25.9518 124.409 26.7132 119.656C27.4746 114.902 27.3477 110.029 26.3325 105.038C25.3173 100.047 24.302 97.3133 23.2868 96.8379C22.2716 96.3625 21.764 94.6987 21.764 91.8465C21.764 88.9943 24.4289 87.2117 29.7588 86.4986C35.0887 85.7856 38.7689 83.6464 40.7994 80.0811C42.8298 76.5158 45.6217 72.7129 49.1749 68.6722C52.7282 64.6316 58.3119 59.8779 65.926 54.4112C73.5402 48.9444 81.9158 44.5472 91.0527 41.2196C100.19 37.8921 109.454 35.8717 118.844 35.1587C128.235 34.4456 135.849 34.4456 141.687 35.1587ZM127.601 43.3588C120.494 43.3588 112.372 44.5472 103.235 46.9241C94.0984 49.3009 86.3573 52.272 80.0122 55.8373C73.6671 59.4025 68.8448 62.6113 65.5453 65.4635C62.2459 68.3157 59.0733 71.6433 56.0277 75.4463C54.5048 77.3477 52.982 79.2492 51.4592 81.1507C54.3779 81.1507 57.2967 81.1507 60.2154 81.1507C66.053 81.1507 69.0986 82.1014 69.3524 84.0029C69.6062 85.9044 71.1291 87.2117 73.9209 87.9247C76.7128 88.6378 80.1391 88.9943 84.2 88.9943C88.2609 88.9943 91.8142 88.6378 94.8598 87.9247C97.9055 87.2117 99.3014 86.1421 99.0476 84.716C98.7938 83.2899 98.9207 82.3391 99.4283 81.8638C99.9359 81.3884 102.347 81.0319 106.662 80.7942C110.976 80.5565 114.657 80.6753 117.702 81.1507C120.748 81.6261 123.667 82.458 126.459 83.6464C129.25 84.8348 144.479 87.4493 172.143 91.49C185.976 93.5103 199.808 95.5306 213.641 97.551C212.879 95.8872 212.118 94.2234 211.356 92.5596C209.833 89.232 207.422 85.3102 204.123 80.7942C200.823 76.2782 196.636 71.7621 191.56 67.2461C186.483 62.7301 180.011 58.4518 172.143 54.4112C164.275 50.3705 156.661 47.5183 149.301 45.8545C141.941 44.1907 134.707 43.3588 127.601 43.3588ZM112.753 88.9943C107.423 89.4697 103.743 90.0639 101.713 90.7769C99.6821 91.49 98.2862 92.3219 97.5248 93.2726C97.1441 93.748 96.7634 94.2234 96.3826 94.6987C96.6365 94.8176 96.8903 94.9364 97.1441 95.0553C97.6517 95.2929 99.6821 94.5799 103.235 92.9161C106.789 91.2523 110.469 90.4204 114.276 90.4204C118.083 90.4204 121.129 90.7769 123.413 91.49C125.697 92.203 128.362 93.6292 131.408 95.7683C134.453 97.9075 135.849 99.4524 135.596 100.403C135.342 101.354 134.707 101.948 133.692 102.186C132.677 102.423 131.535 101.948 130.266 100.76C128.997 99.5713 127.22 98.5017 124.936 97.551C123.794 97.0756 122.651 96.6002 121.509 96.1248C121.509 97.1944 121.509 98.264 121.509 99.3336C121.509 101.473 120.621 103.255 118.844 104.681C117.068 106.108 115.418 106.821 113.895 106.821C112.372 106.821 110.85 106.345 109.327 105.395C107.804 104.444 106.789 103.374 106.281 102.186C105.773 100.997 105.647 99.6901 105.9 98.264C106.027 97.551 106.154 96.8379 106.281 96.1248C104.631 97.0756 102.982 98.0263 101.332 98.9771C98.0324 100.879 97.1441 103.731 98.6669 107.534C100.19 111.337 102.093 114.189 104.378 116.09C106.662 117.992 108.946 119.299 111.23 120.012C113.514 120.725 115.926 121.082 118.464 121.082C121.002 121.082 123.413 120.725 125.697 120.012C127.981 119.299 129.885 118.348 131.408 117.16C132.931 115.972 134.2 114.308 135.215 112.169C136.23 110.029 136.865 107.415 137.118 104.325C137.372 101.235 137.118 98.5017 136.357 96.1248C135.596 93.748 132.804 91.8465 127.981 90.4204C123.159 88.9943 118.083 88.5189 112.753 88.9943ZM48.0328 88.2812C47.2714 88.2812 46.51 88.8755 45.7486 90.0639C45.3678 90.6581 44.9871 91.2523 44.6064 91.8465C47.2714 91.6088 49.9363 91.3711 52.6013 91.1335C57.9312 90.6581 62.4997 91.2523 66.3068 92.9161C68.2103 93.748 70.1138 94.5799 72.0174 95.4118C71.5098 94.8176 71.0021 94.2234 70.4945 93.6292C69.4793 92.4407 67.9565 91.49 65.926 90.7769C63.8956 90.0639 60.5961 89.4697 56.0277 88.9943C51.4592 88.5189 48.7942 88.2812 48.0328 88.2812ZM33.9466 91.8465C33.439 92.7973 32.9314 93.748 32.4238 94.6987C31.9162 95.6495 31.4086 96.6002 30.901 97.551C31.4086 96.6002 31.9162 95.6495 32.4238 94.6987C32.9314 93.748 33.439 92.7973 33.9466 91.8465ZM62.8804 96.1248C62.7535 97.3133 62.6266 98.5017 62.4997 99.6901C62.2459 102.067 61.2307 103.85 59.454 105.038C57.6774 106.226 56.0277 106.821 54.5048 106.821C52.982 106.821 51.4592 106.226 49.9363 105.038C48.4135 103.85 47.5252 102.067 47.2714 99.6901C47.1445 98.5017 47.0176 97.3133 46.8907 96.1248C46.0024 96.4814 45.114 96.8379 44.2257 97.1944C42.4491 97.9075 40.6725 101.354 38.8958 107.534C37.1192 113.714 37.8806 117.516 41.1801 118.943C44.4795 120.369 47.5252 121.082 50.317 121.082C53.1089 121.082 55.9008 120.488 58.6926 119.299C61.4845 118.111 64.1494 115.734 66.6875 112.169C69.2255 108.603 70.6214 105.87 70.8752 103.968C71.1291 102.067 69.86 100.284 67.0682 98.6205C65.6722 97.7886 64.2763 96.9567 62.8804 96.1248ZM147.017 97.1944C144.732 97.4321 143.337 99.809 142.829 104.325C142.321 108.841 141.306 112.525 139.783 115.377C138.26 118.23 135.469 120.606 131.408 122.508C127.347 124.409 122.905 125.36 118.083 125.36C113.261 125.36 109.327 124.766 106.281 123.577C103.235 122.389 100.444 120.488 97.9055 117.873C95.3674 115.258 92.9563 111.456 90.672 106.464C88.3878 101.473 86.7381 98.7394 85.7228 98.264C84.7076 97.7886 83.6924 97.7886 82.6772 98.264C81.662 98.7394 80.1391 101.235 78.1087 105.751C76.0782 110.267 73.794 113.951 71.256 116.803C68.7179 119.656 65.6722 121.795 62.119 123.221C58.5657 124.647 54.3779 125.36 49.5556 125.36C44.7333 125.36 41.1801 125.004 38.8958 124.29C37.7537 123.934 36.6116 123.577 35.4695 123.221C35.7233 128.925 35.9771 134.63 36.2309 140.334C36.7385 151.743 38.3882 162.677 41.1801 173.135C43.9719 183.593 46.2562 190.605 48.0328 194.17C49.8094 197.735 51.8399 199.755 54.1241 200.231C56.4084 200.706 58.4388 202.726 60.2154 206.292C61.9921 209.857 64.5301 213.422 67.8296 216.988C71.1291 220.553 74.3016 222.811 77.3473 223.762C80.3929 224.712 82.6772 223.643 84.2 220.553C85.7228 217.463 89.0223 215.799 94.0984 215.561C99.1745 215.324 102.347 216.75 103.616 219.84C104.885 222.93 106.281 224.593 107.804 224.831C109.327 225.069 111.865 224.237 115.418 222.335C118.971 220.434 123.413 216.75 128.743 211.283C134.073 205.816 139.403 203.796 144.732 205.222C150.062 206.648 154.504 206.529 158.057 204.866C161.611 203.202 164.529 201.182 166.814 198.805C169.098 196.428 171.382 193.1 173.666 188.822C175.951 184.544 178.615 178.245 181.661 169.926C184.707 161.607 186.864 154.714 188.133 149.247C189.402 143.781 190.544 140.334 191.56 138.908C192.575 137.482 193.971 136.769 195.747 136.769C197.524 136.769 198.793 137.244 199.554 138.195C200.316 139.146 200.696 145.92 200.696 158.517C200.696 164.816 200.696 171.114 200.696 177.413C202.346 175.155 203.996 172.897 205.646 170.639C208.945 166.123 213.387 163.508 218.97 162.795C224.554 162.082 228.615 161.013 231.153 159.587C233.691 158.161 235.848 156.497 237.625 154.595C239.402 152.694 241.051 149.604 242.574 145.326C244.097 141.047 244.605 137.125 244.097 133.56C243.59 129.995 242.828 127.262 241.813 125.36C240.798 123.459 239.148 121.438 236.864 119.299C234.579 117.16 231.153 115.377 226.585 113.951C222.016 112.525 219.097 110.386 217.828 107.534C216.559 104.681 205.011 102.186 183.184 100.047C161.357 97.9075 149.301 96.9567 147.017 97.1944ZM83.0579 108.603C82.8041 110.267 81.0274 114.427 77.728 121.082C74.4285 127.737 71.5098 132.253 68.9717 134.63C66.4337 137.007 64.9108 138.789 64.4032 139.978C63.8956 141.166 63.7687 142.473 64.0225 143.899C64.2763 145.326 65.1646 146.752 66.6875 148.178C68.2103 149.604 71.256 150.792 75.8244 151.743C80.3929 152.694 82.8041 153.526 83.0579 154.239C83.1848 154.595 83.3117 154.952 83.4386 155.308C81.1543 155.308 78.8701 155.308 76.5859 155.308C72.0174 155.308 68.2103 154.476 65.1646 152.813C62.119 151.149 60.2154 148.653 59.454 145.326C58.6926 141.998 58.5657 139.74 59.0733 138.552C59.5809 137.363 61.6114 135.343 65.1646 132.491C68.7179 129.638 72.1443 124.766 75.4437 117.873C78.7432 110.98 80.9005 107.296 81.9158 106.821C82.4234 106.583 82.931 106.345 83.4386 106.108C83.3117 106.94 83.1848 107.771 83.0579 108.603ZM227.727 129.995C228.488 131.659 228.234 134.749 226.965 139.265C225.696 143.781 224.554 146.395 223.539 147.108C222.524 147.821 221.382 148.178 220.113 148.178C218.844 148.178 217.828 147.821 217.067 147.108C216.305 146.395 215.798 145.326 215.544 143.899C215.29 142.473 215.798 139.74 217.067 135.699C218.336 131.659 219.351 129.282 220.113 128.569C220.874 127.856 222.143 127.499 223.92 127.499C225.696 127.499 226.965 128.331 227.727 129.995ZM113.514 168.5C122.905 170.164 128.489 171.709 130.266 173.135C132.042 174.561 132.931 175.868 132.931 177.057C132.931 178.245 132.423 179.077 131.408 179.552C130.393 180.028 128.997 180.146 127.22 179.909C125.443 179.671 123.032 182.167 119.987 187.396C116.941 192.625 114.022 196.309 111.23 198.448C108.438 200.587 105.647 202.251 102.855 203.44C100.063 204.628 96.6365 205.341 92.5756 205.579C88.5147 205.816 84.8345 205.46 81.5351 204.509C78.2356 203.558 74.9361 201.538 71.6367 198.448C68.3372 195.358 65.4184 191.555 62.8804 187.039C60.3423 182.523 57.4236 180.265 54.1241 180.265C50.8247 180.265 48.6673 179.909 47.6521 179.196C46.6369 178.483 46.1293 177.651 46.1293 176.7C46.1293 175.749 47.1445 174.561 49.1749 173.135C51.2054 171.709 56.916 170.164 66.3068 168.5C75.6975 166.836 81.4082 166.123 83.4386 166.361C85.469 166.598 86.7381 167.193 87.2457 168.143C87.7533 169.094 87.8802 170.164 87.6264 171.352C87.3726 172.541 86.6112 173.61 85.3421 174.561C84.0731 175.512 81.9158 176.225 78.8701 176.7C77.3473 176.938 75.8244 177.175 74.3016 177.413C78.3625 177.294 82.4234 177.175 86.4843 177.057C90.5451 176.938 94.606 176.819 98.6669 176.7C97.6517 176.225 96.6365 175.749 95.6212 175.274C93.5908 174.323 92.4487 172.897 92.1949 170.996C91.9411 169.094 93.0832 167.787 95.6212 167.074C98.1593 166.361 104.124 166.836 113.514 168.5ZM118.464 178.839C113.768 179.433 109.073 180.028 104.378 180.622C94.9867 181.81 86.2304 182.286 78.1087 182.048C74.0478 181.929 69.9869 181.81 65.926 181.691C65.926 181.929 65.926 182.167 65.926 182.404C65.926 182.88 66.6875 184.306 68.2103 186.683C69.7331 189.06 72.6519 189.773 76.9666 188.822C81.2813 187.871 85.7228 187.396 90.2913 187.396C94.8598 187.396 99.5552 187.99 104.378 189.178C109.2 190.367 112.753 188.941 115.037 184.9C116.179 182.88 117.322 180.859 118.464 178.839ZM89.1492 192.387C83.3117 192.387 79.3777 192.744 77.3473 193.457C76.3321 193.813 75.3168 194.17 74.3016 194.526C75.6975 195.477 77.0935 196.428 78.4894 197.379C81.2813 199.28 84.9614 200.35 89.5299 200.587C94.0984 200.825 98.1593 199.993 101.713 198.092C105.266 196.19 106.916 195.002 106.662 194.526C106.408 194.051 104.885 193.576 102.093 193.1C99.3014 192.625 94.9867 192.387 89.1492 192.387Z" fill="#ffffff" fill-rule="nonzero" opacity="1" stroke="none"/>
</g>
</svg>
