<?xml version="1.0" encoding="UTF-8" standalone="no"?>
<!DOCTYPE svg PUBLIC "-//W3C//DTD SVG 1.1//EN" "http://www.w3.org/Graphics/SVG/1.1/DTD/svg11.dtd">
<!-- Created with Vectornator (http://vectornator.io/) -->
<svg height="80" stroke-miterlimit="10" style="fill-rule:nonzero;clip-rule:evenodd;stroke-linecap:round;stroke-linejoin:round;" version="1.1" viewBox="0 0 80 80" width="80" xml:space="preserve" xmlns="http://www.w3.org/2000/svg" xmlns:vectornator="http://vectornator.io" xmlns:xlink="http://www.w3.org/1999/xlink">
<defs/>
<g id="Calque-1" vectornator:layerName="Calque 1">
<g fill="#063dcc" opacity="1" stroke="none">
<path d="M63.2881 21.1225L60.1836 17.9147L58.032 18.7112L57.1724 17.823L65.854 14.7148L66.6802 15.5685L63.2979 24.1523L62.4216 23.2469L63.2881 21.1225ZM63.6858 20.1531L65.3833 15.9885L61.1655 17.5489L63.6858 20.1531Z"/>
<path d="M64.5722 27.0317C64.0305 26.0514 63.8887 25.1334 64.147 24.2777C64.4053 23.422 65.0596 22.7039 66.1098 22.1234L70.2899 19.8131L70.8703 20.8634L66.7323 23.1505C65.1569 24.0212 64.7504 25.1462 65.5128 26.5255C65.8843 27.1977 66.363 27.6049 66.949 27.7473C67.5349 27.8896 68.227 27.7401 69.0252 27.299L73.1632 25.0119L73.7263 26.0306L69.5463 28.341C68.489 28.9253 67.5311 29.0982 66.6726 28.8598C65.8142 28.6213 65.114 28.0119 64.5722 27.0317Z"/>
<path d="M74.0046 30.4194L73.2451 27.6413L74.2522 27.366L76.0843 34.0681L75.0773 34.3434L74.3178 31.5653L67.2222 33.5051L66.9089 32.3591L74.0046 30.4194Z"/>
<path d="M68.0965 41.9466L70.6245 40.0627C70.6022 39.8393 70.5893 39.6636 70.5857 39.5356L70.5272 37.4604L67.9722 37.5324L67.9385 36.3328L76.3351 36.0965L76.4273 39.3712C76.458 40.4587 76.2222 41.3217 75.7199 41.9601C75.2177 42.5985 74.5108 42.9305 73.5991 42.9562C72.9514 42.9744 72.3951 42.83 71.9303 42.523C71.4654 42.2159 71.1207 41.7694 70.8962 41.1835L68.1333 43.2541L68.0965 41.9466ZM71.6042 39.4709C71.6256 40.2306 71.8059 40.8058 72.145 41.1964C72.4841 41.587 72.9576 41.7738 73.5653 41.7566C74.1731 41.7395 74.6333 41.5265 74.9459 41.1175C75.2585 40.7086 75.4041 40.1243 75.3827 39.3646L75.3253 37.3254L71.5468 37.4317L71.6042 39.4709Z"/>
<path d="M67.6891 49.7146L66.6696 49.4896L67.9838 43.5369L76.1863 45.3477L74.9084 51.1363L73.8889 50.9112L74.9081 46.2944L72.3888 45.7382L71.4808 49.8512L70.4848 49.6313L71.3928 45.5184L68.7445 44.9337L67.6891 49.7146Z"/>
<path d="M65.2674 52.0885C65.5409 51.5187 65.8932 51.0112 66.3244 50.5659C66.7555 50.1207 67.1844 49.8141 67.6111 49.6462L68.2628 50.4515C67.8647 50.6154 67.4763 50.8837 67.0976 51.2566C66.719 51.6295 66.4154 52.0539 66.1869 52.5299C65.8857 53.1573 65.7671 53.6772 65.831 54.0894C65.8949 54.5017 66.1035 54.7926 66.4569 54.9623C66.7166 55.0869 66.9682 55.1034 67.2118 55.0118C67.4554 54.9202 67.6803 54.7708 67.8862 54.5635C68.0922 54.3563 68.3584 54.0514 68.6846 53.649C69.0952 53.145 69.4529 52.751 69.7578 52.467C70.0628 52.183 70.4174 51.9849 70.8217 51.8729C71.226 51.7608 71.6698 51.8207 72.153 52.0527C72.5569 52.2466 72.87 52.5278 73.0925 52.8963C73.3149 53.2649 73.4196 53.7122 73.4066 54.2384C73.3936 54.7646 73.233 55.3487 72.9249 55.9905C72.7103 56.4377 72.4414 56.8499 72.1183 57.2273C71.7952 57.6046 71.451 57.8964 71.0858 58.1027L70.3917 57.3302C70.746 57.1098 71.0619 56.8444 71.3396 56.534C71.6173 56.2236 71.8392 55.8953 72.0054 55.5491C72.2997 54.9361 72.4086 54.4227 72.3321 54.0088C72.2557 53.595 72.0408 53.3033 71.6874 53.1336C71.4277 53.009 71.1752 52.9943 70.9299 53.0895C70.6845 53.1847 70.4553 53.3387 70.2423 53.5514C70.0292 53.7642 69.7666 54.0663 69.4545 54.4578C69.0439 54.9617 68.6871 55.3539 68.3839 55.6343C68.0807 55.9147 67.7287 56.1118 67.328 56.2256C66.9273 56.3394 66.4889 56.2821 66.0129 56.0536C65.6163 55.8632 65.3058 55.5811 65.0815 55.2072C64.8572 54.8333 64.7551 54.3805 64.7751 53.8488C64.7952 53.3171 64.9593 52.7304 65.2674 52.0885Z"/>
<path d="M59.9416 59.6496C60.385 59.1993 60.8828 58.8334 61.435 58.5519C61.9872 58.2704 62.4924 58.1194 62.9504 58.0989L63.3059 59.072C62.8761 59.0979 62.4217 59.2259 61.9427 59.4559C61.4636 59.6859 61.0389 59.989 60.6684 60.3652C60.1801 60.8612 59.8993 61.3145 59.8261 61.7252C59.7529 62.1359 59.856 62.4788 60.1353 62.7538C60.3406 62.9559 60.5732 63.0531 60.8334 63.0454C61.0936 63.0377 61.3547 62.9692 61.6167 62.8399C61.8788 62.7106 62.2294 62.5085 62.6685 62.2335C63.2202 61.8898 63.6863 61.6331 64.0669 61.4633C64.4474 61.2934 64.8471 61.221 65.2659 61.2461C65.6847 61.2711 66.0851 61.4717 66.467 61.8477C66.7862 62.162 66.9913 62.5296 67.0823 62.9503C67.1732 63.3711 67.1273 63.8282 66.9444 64.3218C66.7615 64.8154 66.4203 65.3158 65.9208 65.8232C65.5728 66.1766 65.1848 66.4794 64.7568 66.7317C64.3288 66.9839 63.9087 67.1484 63.4963 67.2251L63.0901 66.2694C63.4967 66.1757 63.8816 66.0271 64.2449 65.8234C64.6082 65.6198 64.9246 65.3812 65.194 65.1075C65.6711 64.623 65.9405 64.1726 66.0024 63.7563C66.0642 63.3401 65.9555 62.9944 65.6761 62.7194C65.4709 62.5173 65.2368 62.4215 64.9738 62.4321C64.7109 62.4426 64.4441 62.5139 64.1736 62.6462C63.9031 62.7784 63.5568 62.979 63.1346 63.2482C62.5828 63.5919 62.1181 63.8472 61.7404 64.0142C61.3627 64.1812 60.9658 64.2536 60.5498 64.2313C60.1339 64.2091 59.7378 64.0127 59.3616 63.6423C59.048 63.3336 58.8458 62.966 58.7548 62.5396C58.6638 62.1132 58.714 61.6518 58.9053 61.1553C59.0966 60.6588 59.442 60.1569 59.9416 59.6496Z"/>
<path d="M57.0103 66.9457L57.4733 64.806L56.3113 62.971L57.3251 62.329L61.8192 69.4256L60.8054 70.0677L58.2951 66.1037L56.9529 72.5073L55.7972 73.2392L56.8061 68.1261L51.1104 66.2645L52.2966 65.5134L57.0103 66.9457Z"/>
<path d="M54.4345 73.6471L53.332 74.1209L50.015 66.4036L51.1175 65.9297L54.4345 73.6471Z"/>
<path d="M50.2784 75.2956L49.1135 75.5839L47.3468 68.4432L42.9319 69.5354L42.6812 68.522L48.261 67.1415L50.2784 75.2956Z"/>
<path d="M42.8004 76.8237L41.6012 76.8671L41.3354 69.5159L36.7904 69.6802L36.7527 68.6368L42.4969 68.4292L42.8004 76.8237Z"/>
<path d="M34.3194 67.9854C34.9408 68.1004 35.5228 68.3077 36.0654 68.6074C36.6079 68.9071 37.016 69.2409 37.2896 69.6088L36.6827 70.4484C36.4205 70.107 36.0599 69.8023 35.601 69.5344C35.1421 69.2664 34.653 69.0844 34.1338 68.9884C33.4494 68.8618 32.9166 68.8832 32.5354 69.0527C32.1543 69.2221 31.928 69.4996 31.8567 69.8851C31.8043 70.1683 31.8541 70.4155 32.0063 70.6267C32.1584 70.8379 32.3614 71.0158 32.6153 71.1604C32.8693 71.305 33.2331 71.4821 33.7069 71.6918C34.3007 71.9563 34.7745 72.1985 35.1284 72.4185C35.4823 72.6386 35.7661 72.9291 35.98 73.29C36.194 73.651 36.2522 74.095 36.1546 74.622C36.0731 75.0625 35.8836 75.4383 35.5861 75.7494C35.2885 76.0604 34.8841 76.2785 34.3728 76.4036C33.8615 76.5287 33.2558 76.5264 32.5557 76.3969C32.068 76.3067 31.5998 76.155 31.151 75.9418C30.7023 75.7286 30.3307 75.4727 30.0361 75.1741L30.6001 74.3022C30.9055 74.5865 31.2443 74.822 31.6165 75.0089C31.9888 75.1957 32.3637 75.3241 32.7413 75.3939C33.4099 75.5176 33.934 75.4885 34.3134 75.3065C34.6928 75.1245 34.9182 74.8407 34.9895 74.4553C35.0419 74.1721 34.9901 73.9245 34.834 73.7126C34.678 73.5007 34.4694 73.3197 34.2084 73.1697C33.9473 73.0197 33.587 72.8453 33.1275 72.6463C32.5337 72.3819 32.0619 72.14 31.7119 71.9207C31.362 71.7014 31.0797 71.4132 30.8651 71.0562C30.6504 70.6992 30.5912 70.2611 30.6872 69.7419C30.7673 69.3093 30.9584 68.9358 31.2606 68.6215C31.5628 68.3073 31.9731 68.0903 32.4916 67.9706C33.01 67.8509 33.6193 67.8559 34.3194 67.9854Z"/>
<path d="M26.572 69.6568L23.698 68.1872L24.1514 67.3004L27.0255 68.77L26.572 69.6568Z"/>
<path d="M16.4658 60.1891L19.6605 63.3069L21.7885 62.4493L22.6731 63.3126L14.0839 66.6675L13.2336 65.8377L16.3694 57.1608L17.2712 58.0408L16.4658 60.1891ZM16.0958 61.1695L14.5179 65.3808L18.6895 63.7006L16.0958 61.1695Z"/>
<path d="M15.0531 54.3096C15.611 55.2808 15.7679 56.1963 15.5238 57.0562C15.2796 57.916 14.6373 58.6448 13.5968 59.2426L9.45547 61.6216L8.85773 60.5811L12.9574 58.226C14.5182 57.3293 14.9061 56.1978 14.121 54.8312C13.7385 54.1653 13.2531 53.766 12.6649 53.6334C12.0766 53.5007 11.3871 53.6616 10.5963 54.1159L6.49663 56.471L5.91682 55.4617L10.0581 53.0826C11.1056 52.4809 12.0605 52.2922 12.9228 52.5165C13.7851 52.7407 14.4952 53.3384 15.0531 54.3096Z"/>
<path d="M5.61424 51.1373L6.40954 53.9053L5.40613 54.1936L3.48747 47.5157L4.49088 47.2274L5.28618 49.9955L12.3561 47.9641L12.6842 49.1059L5.61424 51.1373Z"/>
<path d="M11.3032 39.5283L8.82678 41.4795C8.85507 41.7023 8.87274 41.8776 8.87978 42.0054L8.99396 44.0782L11.5461 43.9376L11.6121 45.1358L3.2248 45.5978L3.04462 42.3268C2.98479 41.2404 3.19732 40.3714 3.68221 39.7198C4.1671 39.0681 4.86486 38.7172 5.77548 38.667C6.4225 38.6314 6.98246 38.7608 7.45537 39.0552C7.92828 39.3497 8.28486 39.7867 8.5251 40.3664L11.2313 38.2223L11.3032 39.5283ZM7.8633 42.0974C7.8215 41.3386 7.62585 40.7685 7.27635 40.3871C6.92685 40.0057 6.44856 39.8318 5.84148 39.8652C5.2344 39.8987 4.7801 40.124 4.47859 40.5412C4.17708 40.9584 4.04723 41.5464 4.08902 42.3053L4.20122 44.3422L7.9755 44.1343L7.8633 42.0974Z"/>
<path d="M11.3407 31.5841L12.3702 31.7575L11.3576 37.7688L3.07431 36.3735L4.05896 30.5279L5.08845 30.7013L4.30313 35.3636L6.84729 35.7922L7.54691 31.6387L8.55274 31.8081L7.85312 35.9616L10.5274 36.4121L11.3407 31.5841Z"/>
<path d="M13.6579 28.9936C13.4127 29.5762 13.0858 30.1004 12.6771 30.5663C12.2683 31.0322 11.855 31.3595 11.4371 31.5482L10.7466 30.7759C11.1362 30.5927 11.5109 30.3055 11.8708 29.9145C12.2306 29.5235 12.513 29.0846 12.7178 28.598C12.9877 27.9565 13.0807 27.4314 12.9966 27.0228C12.9125 26.6142 12.6898 26.3339 12.3285 26.1818C12.0631 26.0701 11.8109 26.066 11.5721 26.1694C11.3333 26.2729 11.1161 26.4332 10.9205 26.6503C10.725 26.8675 10.4742 27.1851 10.1681 27.6031C9.78281 28.1266 9.44488 28.5377 9.15428 28.8364C8.86367 29.135 8.51921 29.3503 8.12089 29.4821C7.72258 29.6139 7.2764 29.5759 6.78237 29.3679C6.36945 29.1942 6.04285 28.9287 5.80258 28.5715C5.56231 28.2144 5.43573 27.7727 5.42283 27.2465C5.40994 26.7203 5.54158 26.129 5.81776 25.4728C6.01016 25.0156 6.25844 24.5907 6.56261 24.1979C6.86678 23.8051 7.19619 23.4968 7.55083 23.2728L8.28206 24.0102C7.93906 24.2477 7.63652 24.5283 7.37444 24.852C7.11237 25.1757 6.90685 25.5145 6.7579 25.8684C6.49413 26.4952 6.41059 27.0134 6.50729 27.423C6.60399 27.8325 6.83299 28.1133 7.1943 28.2654C7.45975 28.3771 7.71266 28.3794 7.95304 28.2723C8.19343 28.1651 8.41479 28 8.61712 27.7771C8.81945 27.5541 9.06688 27.2394 9.35941 26.8331C9.74466 26.3095 10.0818 25.9003 10.3709 25.6053C10.6599 25.3103 11.0018 25.0962 11.3964 24.9628C11.791 24.8294 12.2317 24.8652 12.7183 25.07C13.1239 25.2406 13.4478 25.5072 13.6902 25.8696C13.9327 26.232 14.0569 26.6792 14.063 27.2112C14.0691 27.7432 13.9341 28.3374 13.6579 28.9936Z"/>
<path d="M18.6443 21.2779C18.2148 21.7416 17.7284 22.1226 17.1851 22.4208C16.6417 22.719 16.1414 22.8853 15.6842 22.9199L15.2992 21.9581C15.7279 21.919 16.1782 21.7772 16.65 21.5327C17.1219 21.2882 17.5372 20.9722 17.8959 20.5848C18.3689 20.0742 18.6356 19.6125 18.6963 19.1998C18.7569 18.787 18.6434 18.4475 18.3558 18.1811C18.1445 17.9854 17.9089 17.8954 17.6491 17.911C17.3893 17.9266 17.1304 18.003 16.8724 18.1403C16.6145 18.2776 16.2702 18.4903 15.8397 18.7785C15.2987 19.1389 14.8407 19.4098 14.4655 19.5912C14.0903 19.7726 13.6931 19.8571 13.2737 19.8449C12.8543 19.8327 12.448 19.6444 12.0547 19.2802C11.726 18.9758 11.5098 18.6147 11.4061 18.1969C11.3023 17.7792 11.3343 17.3208 11.502 16.8219C11.6697 16.3229 11.9954 15.8123 12.4792 15.2899C12.8163 14.926 13.1948 14.6115 13.6149 14.3463C14.035 14.0811 14.4499 13.9039 14.8598 13.8146L15.295 14.7574C14.8915 14.8635 14.5113 15.0238 14.1543 15.2385C13.7974 15.4531 13.4885 15.7013 13.2276 15.983C12.7655 16.4819 12.5099 16.9403 12.4609 17.3583C12.4118 17.7763 12.531 18.1184 12.8186 18.3848C13.0299 18.5805 13.2668 18.6691 13.5294 18.6505C13.7919 18.632 14.0563 18.5525 14.3227 18.4121C14.589 18.2717 14.9291 18.0605 15.3428 17.7786C15.8838 17.4182 16.3405 17.1488 16.713 16.9703C17.0854 16.7919 17.4799 16.7074 17.8963 16.7169C18.3128 16.7265 18.7147 16.9106 19.1021 17.2694C19.4249 17.5684 19.6383 17.9296 19.7422 18.353C19.8462 18.7764 19.8102 19.2392 19.6341 19.7413C19.458 20.2434 19.1281 20.7556 18.6443 21.2779Z"/>
<path d="M21.2872 13.9429L20.9051 16.0986L22.1354 17.8885L21.1465 18.5682L16.3882 11.6459L17.3771 10.9662L20.035 14.8328L21.1349 8.38308L22.2623 7.60815L21.4467 12.7557L27.2085 14.4013L26.0515 15.1966L21.2872 13.9429Z"/>
<path d="M23.8429 7.04349L24.9331 6.54209L28.443 14.1737L27.3527 14.6751L23.8429 7.04349Z"/>
<path d="M28.006 5.28299L29.1669 4.97904L31.0301 12.0952L35.4298 10.9432L35.6942 11.9532L30.1336 13.4091L28.006 5.28299Z"/>
<path d="M35.4273 3.67539L36.6262 3.62358L36.9438 10.9727L41.4875 10.7764L41.5326 11.8194L35.7899 12.0676L35.4273 3.67539Z"/>
<path d="M43.9542 12.4435C43.3313 12.3365 42.7467 12.1366 42.2004 11.8438C41.6541 11.5511 41.2418 11.2225 40.9635 10.8581L41.5596 10.0108C41.8262 10.3489 42.1907 10.6489 42.6529 10.911C43.1152 11.1731 43.6066 11.3489 44.1269 11.4383C44.8129 11.5562 45.3454 11.5279 45.7244 11.3536C46.1034 11.1793 46.3261 10.899 46.3924 10.5126C46.4412 10.2288 46.3882 9.98224 46.2334 9.773C46.0786 9.56376 45.8733 9.38846 45.6176 9.2471C45.3618 9.10574 44.9958 8.93324 44.5194 8.72961C43.9222 8.47277 43.4454 8.23659 43.0887 8.02107C42.7321 7.80555 42.4445 7.5187 42.226 7.16052C42.0075 6.80234 41.9436 6.35912 42.0344 5.83086C42.1103 5.38933 42.295 5.01116 42.5886 4.69633C42.8822 4.3815 43.2838 4.1583 43.7934 4.02671C44.3031 3.89513 44.9087 3.88964 45.6105 4.01023C46.0993 4.09424 46.5694 4.23996 47.0208 4.44741C47.4722 4.65486 47.8471 4.90598 48.1454 5.20078L47.5926 6.07984C47.2836 5.79946 46.9418 5.56823 46.5672 5.38616C46.1927 5.20408 45.8161 5.08053 45.4377 5.01549C44.7675 4.90032 44.2439 4.93615 43.8668 5.12298C43.4897 5.30981 43.268 5.5964 43.2016 5.98273C43.1528 6.26657 43.2078 6.51345 43.3665 6.72337C43.5253 6.93329 43.7361 7.11158 43.9991 7.25823C44.262 7.40489 44.6245 7.57473 45.0865 7.76777C45.6836 8.02461 46.1585 8.26046 46.5112 8.4753C46.8639 8.69014 47.1499 8.97468 47.369 9.32892C47.5882 9.68316 47.6531 10.1205 47.5636 10.6408C47.4891 11.0745 47.3028 11.4503 47.0046 11.7684C46.7064 12.0865 46.2989 12.3087 45.782 12.435C45.2652 12.5613 44.6559 12.5641 43.9542 12.4435Z"/>
<path d="M51.703 10.6283L54.621 12.0087L54.195 12.909L51.2771 11.5286L51.703 10.6283Z"/>
</g>
</g>
</svg>
