<?xml version="1.0" encoding="UTF-8" standalone="no"?>
<!DOCTYPE svg PUBLIC "-//W3C//DTD SVG 1.1//EN" "http://www.w3.org/Graphics/SVG/1.1/DTD/svg11.dtd">
<!-- Created with Vectornator (http://vectornator.io/) -->
<svg height="100" stroke-miterlimit="10" style="fill-rule:nonzero;clip-rule:evenodd;stroke-linecap:round;stroke-linejoin:round;" version="1.1" viewBox="0 0 80 80" width="100" xml:space="preserve" xmlns="http://www.w3.org/2000/svg" xmlns:vectornator="http://vectornator.io" xmlns:xlink="http://www.w3.org/1999/xlink">
<defs/>
<g id="Calque-1" vectornator:layerName="Calque 1">
<g opacity="1">
<g fill="#063dcc" opacity="1" stroke="none">
<path d="M10.6462 37.1207C10.6033 37.5769 10.4911 38.0106 10.3097 38.4217C10.1283 38.8328 9.91361 39.149 9.66559 39.3704L9.02012 38.9863C9.24973 38.7749 9.44648 38.4949 9.61036 38.1462C9.77424 37.7975 9.87411 37.4326 9.90997 37.0515C9.95723 36.5491 9.90737 36.1657 9.76039 35.9014C9.6134 35.6371 9.39843 35.4916 9.11548 35.465C8.9076 35.4454 8.73231 35.4974 8.58962 35.6209C8.44692 35.7443 8.33156 35.9024 8.24352 36.0951C8.15548 36.2878 8.05104 36.562 7.9302 36.9176C7.77757 37.3635 7.63322 37.7213 7.49715 37.9911C7.36109 38.2608 7.16964 38.4845 6.9228 38.6623C6.67597 38.8401 6.3591 38.9107 5.97221 38.8743C5.64884 38.8439 5.36524 38.7313 5.12141 38.5365C4.87759 38.3417 4.69402 38.0638 4.5707 37.7026C4.44739 37.3415 4.40991 36.9039 4.45826 36.39C4.49194 36.032 4.57128 35.6841 4.69627 35.3463C4.82125 35.0085 4.98205 34.7237 5.17864 34.4916L5.84469 34.8427C5.6591 35.0815 5.51086 35.3414 5.39996 35.6222C5.28907 35.9031 5.22058 36.1821 5.19451 36.4593C5.14833 36.9501 5.2032 37.3267 5.35912 37.5889C5.51504 37.8512 5.73448 37.9956 6.01743 38.0222C6.22531 38.0418 6.40073 37.9884 6.5437 37.862C6.68666 37.7357 6.80388 37.5734 6.89534 37.3752C6.98681 37.177 7.08954 36.9056 7.20352 36.5609C7.35615 36.115 7.50037 35.7587 7.63616 35.4918C7.77195 35.225 7.96182 35.0025 8.20577 34.8245C8.44972 34.6465 8.76225 34.5754 9.14337 34.6112C9.46097 34.6411 9.74299 34.755 9.98943 34.953C10.2359 35.1509 10.419 35.4332 10.5389 35.7999C10.6588 36.1665 10.6946 36.6068 10.6462 37.1207Z"/>
<path d="M11.4152 32.6297C11.302 33.0856 11.1026 33.4679 10.8169 33.7765C10.5311 34.085 10.19 34.2977 9.79352 34.4144C9.39702 34.5311 8.97924 34.535 8.54016 34.426C8.10108 34.3171 7.73359 34.1183 7.43768 33.8297C7.14178 33.5411 6.94108 33.194 6.83559 32.7884C6.73009 32.3827 6.73393 31.9519 6.84709 31.4959C6.94768 31.0906 7.11907 30.7492 7.36125 30.4717C7.60343 30.1941 7.90098 30.0065 8.2539 29.9089L8.49778 30.6238C8.24894 30.7114 8.0452 30.8461 7.88655 31.0278C7.72791 31.2096 7.61715 31.4271 7.55428 31.6804C7.48163 31.9731 7.48105 32.2524 7.55255 32.5181C7.62404 32.7839 7.76299 33.0126 7.9694 33.2042C8.17582 33.3959 8.43382 33.5301 8.74343 33.607C9.05867 33.6852 9.35232 33.6879 9.6244 33.615C9.89647 33.5421 10.1262 33.4049 10.3137 33.2034C10.5011 33.0019 10.6312 32.7548 10.7038 32.4621C10.7667 32.2088 10.7705 31.9647 10.7152 31.7299C10.66 31.495 10.5429 31.2807 10.3639 31.0869L10.9053 30.5669C11.1716 30.8182 11.3483 31.1235 11.4354 31.4828C11.5225 31.8421 11.5158 32.2244 11.4152 32.6297Z"/>
<path d="M12.467 29.405C12.3281 29.7555 12.1473 30.0738 11.9248 30.3599C11.7022 30.646 11.4818 30.8519 11.2635 30.9775L10.7771 30.4104C10.9867 30.2751 11.1853 30.0887 11.373 29.8512C11.5608 29.6136 11.7091 29.3573 11.8181 29.0823C12.0874 28.403 12.0279 27.9863 11.6396 27.8325C11.5102 27.7812 11.3896 27.7864 11.2778 27.8482C11.166 27.9099 11.0653 28.0026 10.9758 28.1262C10.8862 28.2498 10.7697 28.4298 10.6261 28.6661C10.4354 28.9898 10.2618 29.247 10.1051 29.4376C9.94849 29.6282 9.7556 29.7685 9.52648 29.8586C9.29736 29.9488 9.03182 29.934 8.72987 29.8143C8.34165 29.6605 8.09437 29.3753 7.98803 28.9588C7.88169 28.5424 7.93644 28.0618 8.15227 27.5172C8.26552 27.2315 8.41383 26.9596 8.59718 26.7016C8.78053 26.4436 8.96785 26.2464 9.15913 26.1101L9.64239 26.6853C9.27703 26.9461 9.00032 27.3137 8.81228 27.7882C8.68192 28.1171 8.63648 28.3892 8.67594 28.6044C8.7154 28.8197 8.82409 28.9626 9.00203 29.0331C9.14222 29.0887 9.27199 29.084 9.39133 29.019C9.51068 28.954 9.61754 28.8575 9.71191 28.7296C9.80628 28.6017 9.92902 28.4179 10.0801 28.1783C10.2762 27.8567 10.4501 27.6028 10.6019 27.4165C10.7537 27.2303 10.9404 27.0937 11.162 27.0068C11.3836 26.92 11.64 26.9342 11.9312 27.0496C12.3194 27.2035 12.5624 27.4916 12.6601 27.914C12.7579 28.3365 12.6935 28.8335 12.467 29.405Z"/>
<path d="M13.9859 26.1653C13.8039 26.4954 13.5843 26.7883 13.3274 27.044C13.0704 27.2997 12.8258 27.4761 12.5934 27.5731L12.1825 26.9491C12.4075 26.8413 12.6282 26.6815 12.8444 26.4696C13.0606 26.2577 13.2402 26.0222 13.383 25.7632C13.736 25.1233 13.7296 24.7025 13.364 24.5008C13.2421 24.4336 13.1218 24.4235 13.003 24.4706C12.8843 24.5178 12.7727 24.597 12.6683 24.7083C12.5639 24.8196 12.4255 24.9834 12.2532 25.1997C12.0231 25.4967 11.8184 25.7298 11.6389 25.8991C11.4594 26.0684 11.2504 26.1832 11.0117 26.2437C10.773 26.3041 10.5115 26.2559 10.2271 26.0991C9.8614 25.8974 9.65214 25.5832 9.59928 25.1567C9.54643 24.7301 9.66146 24.2603 9.94438 23.7474C10.0928 23.4782 10.2743 23.2272 10.4888 22.9945C10.7033 22.7617 10.914 22.5898 11.121 22.4788L11.5277 23.1104C11.1323 23.3229 10.8114 23.6526 10.5649 24.0995C10.394 24.4093 10.3145 24.6735 10.3265 24.8921C10.3384 25.1106 10.4282 25.2661 10.5958 25.3585C10.7278 25.4314 10.8571 25.4431 10.9837 25.3937C11.1103 25.3443 11.2285 25.2621 11.3383 25.1471C11.4481 25.0321 11.5931 24.8654 11.7732 24.6468C12.0084 24.3526 12.213 24.1227 12.3871 23.9571C12.5613 23.7915 12.7637 23.6796 12.9945 23.6214C13.2253 23.5632 13.4778 23.6098 13.7521 23.7611C14.1178 23.9627 14.3224 24.2793 14.366 24.7107C14.4095 25.1421 14.2829 25.6269 13.9859 26.1653Z"/>
<path d="M14.1612 20.7563L15.6584 18.9575L16.2134 19.4195L14.7162 21.2182L14.1612 20.7563Z"/>
<path d="M20.4901 10.3967L22.0722 16.8557L21.3884 17.3794L15.5583 14.1734L16.3043 13.6022L21.0864 16.2409L19.7994 10.9257L20.4901 10.3967Z"/>
<path d="M25.474 9.50956L27.6136 13.5941L26.9123 13.9615L26.5894 13.3449C26.5507 13.6336 26.4396 13.8997 26.2561 14.1431C26.0727 14.3866 25.8371 14.5836 25.5493 14.7344C25.0047 15.0196 24.497 15.0941 24.0262 14.9577C23.5553 14.8213 23.1665 14.4603 22.8597 13.8745L21.6284 11.524L22.3682 11.1365L23.5551 13.4022C23.7623 13.7978 24.0142 14.0473 24.3106 14.1507C24.607 14.254 24.9324 14.2129 25.2869 14.0272C25.6774 13.8226 25.9238 13.543 26.026 13.1882C26.1283 12.8335 26.0664 12.4403 25.8403 12.0087L24.7342 9.89711L25.474 9.50956Z"/>
<path d="M31.3746 9.9169C31.3947 9.97745 31.4158 10.0591 31.4377 10.1618L27.8877 11.3419C28.0653 11.7107 28.3375 11.9641 28.7042 12.1019C29.0709 12.2398 29.4689 12.2374 29.8982 12.0946C30.4211 11.9208 30.7836 11.6047 30.9857 11.1464L31.5934 11.5128C31.4721 11.8098 31.2844 12.0678 31.0302 12.2868C30.776 12.5057 30.4672 12.6756 30.104 12.7964C29.6416 12.9501 29.2001 12.9914 28.7792 12.9205C28.3583 12.8495 27.9935 12.6759 27.6846 12.3996C27.3758 12.1233 27.15 11.7705 27.0073 11.3412C26.8664 10.9174 26.8342 10.5033 26.9107 10.099C26.9871 9.69463 27.1603 9.34216 27.4301 9.04158C27.7 8.741 28.0441 8.52119 28.4623 8.38213C28.8806 8.24308 29.2851 8.21406 29.6757 8.29508C30.0663 8.3761 30.4105 8.55658 30.7083 8.83652C31.0061 9.11647 31.2282 9.47659 31.3746 9.9169ZM28.6846 9.05085C28.3049 9.1771 28.0255 9.39834 27.8464 9.71458C27.6673 10.0308 27.6179 10.3834 27.6983 10.7723L30.5053 9.83916C30.3387 9.48504 30.0885 9.23357 29.7548 9.08473C29.4211 8.9359 29.0644 8.9246 28.6846 9.05085Z"/>
<path d="M33.2238 11.9891C32.8643 12.0549 32.5167 12.0404 32.181 11.9456C31.8452 11.8508 31.5581 11.6837 31.3197 11.4444L31.7095 10.7716C32.1271 11.1845 32.587 11.345 33.089 11.2531C33.4256 11.1915 33.6621 11.042 33.7985 10.8048C33.9349 10.5676 33.9666 10.2492 33.8935 9.84989L33.2777 6.48669L31.1126 6.88309L30.9763 6.13856L33.9886 5.58705L34.7328 9.65198C34.854 10.3138 34.7868 10.8405 34.5313 11.2323C34.2758 11.624 33.8399 11.8763 33.2238 11.9891Z"/>
<path d="M37.2708 11.4559C36.8944 11.4763 36.5297 11.4451 36.1767 11.3626C35.8237 11.28 35.5446 11.1658 35.3392 11.0201L35.651 10.3411C35.8615 10.4749 36.1139 10.5775 36.4082 10.6487C36.7025 10.7199 36.9973 10.7476 37.2927 10.7316C38.0224 10.6922 38.376 10.464 38.3535 10.047C38.346 9.90797 38.2908 9.80059 38.188 9.72483C38.0851 9.64907 37.9588 9.59635 37.8091 9.56669C37.6594 9.53702 37.4472 9.50637 37.1725 9.47475C36.7987 9.43686 36.4925 9.38661 36.2539 9.32399C36.0152 9.26137 35.8071 9.14483 35.6295 8.97437C35.4518 8.8039 35.3542 8.55651 35.3367 8.23218C35.3142 7.81519 35.4698 7.47134 35.8037 7.20063C36.1376 6.92993 36.597 6.77877 37.182 6.74717C37.4889 6.73058 37.7979 6.75164 38.1089 6.81035C38.4199 6.86906 38.6773 6.9568 38.8811 7.07357L38.5606 7.75305C38.171 7.53015 37.7214 7.43246 37.2118 7.46C36.8585 7.47908 36.5923 7.55155 36.4132 7.67739C36.2342 7.80324 36.1498 7.96172 36.1601 8.15284C36.1682 8.30342 36.2268 8.41933 36.3357 8.50057C36.4447 8.58181 36.577 8.63856 36.7326 8.67081C36.8883 8.70306 37.1065 8.73773 37.3873 8.77484C37.7614 8.81852 38.0648 8.87038 38.2975 8.93041C38.5302 8.99045 38.7323 9.10296 38.9039 9.26794C39.0754 9.43293 39.1696 9.67179 39.1865 9.98453C39.2091 10.4015 39.0489 10.7427 38.706 11.0081C38.3631 11.2735 37.8847 11.4228 37.2708 11.4559Z"/>
<path d="M41.9582 8.73602L44.2773 9.05038L44.1803 9.76593L41.8612 9.45158L41.9582 8.73602Z"/>
<path d="M49.9175 7.86593L47.9497 7.16772L48.2028 6.45439L52.9501 8.13882L52.697 8.85215L50.7292 8.15394L48.9459 13.18L48.1342 12.892L49.9175 7.86593Z"/>
<path d="M56.3562 11.6272L52.0239 15.0851C51.6314 15.41 51.2739 15.5961 50.9514 15.6434C50.6288 15.6906 50.3031 15.6282 49.9741 15.4562C49.7737 15.3513 49.5965 15.2177 49.4425 15.0553C49.2885 14.893 49.1821 14.7179 49.1233 14.53L49.7297 14.1403C49.8356 14.4509 50.0273 14.6789 50.3048 14.824C50.4847 14.9181 50.6599 14.9492 50.8304 14.9173C51.0009 14.8854 51.1955 14.7794 51.4141 14.5992L51.6944 14.3825L52.0237 9.36086L52.7946 9.76412L52.5109 13.7787L55.6315 11.2481L56.3562 11.6272Z"/>
<path d="M58.8967 13.4306C59.2545 13.6979 59.5161 14.0164 59.6816 14.3861C59.847 14.7558 59.904 15.1423 59.8526 15.5455C59.8012 15.9487 59.6367 16.3362 59.359 16.7079C59.0813 17.0796 58.7556 17.3485 58.3818 17.5146C58.008 17.6806 57.6204 17.7368 57.219 17.683C56.8175 17.6293 56.4379 17.4688 56.0801 17.2015C55.8152 17.0037 55.6106 16.7712 55.4662 16.5041C55.3218 16.237 55.2459 15.9486 55.2383 15.6389L53.8118 17.5488L53.1426 17.049L56.912 12.0025L57.5533 12.4815L57.1159 13.067C57.4174 12.9736 57.721 12.9597 58.0267 13.0252C58.3325 13.0907 58.6225 13.2259 58.8967 13.4306ZM56.4616 16.5744C56.6986 16.7514 56.952 16.8556 57.2217 16.887C57.4915 16.9183 57.7547 16.8761 58.0115 16.7601C58.2682 16.6442 58.492 16.4585 58.6829 16.2029C58.8738 15.9473 58.9884 15.68 59.0267 15.4009C59.065 15.1219 59.03 14.8586 58.9216 14.6112C58.8132 14.3637 58.6406 14.1515 58.4036 13.9745C58.1712 13.8009 57.9202 13.6985 57.6504 13.6671C57.3807 13.6357 57.1183 13.6769 56.8633 13.7905C56.6083 13.9041 56.3854 14.0887 56.1945 14.3442C56.0036 14.5998 55.8878 14.8663 55.8472 15.1436C55.8066 15.4209 55.8407 15.6853 55.9497 15.9368C56.0586 16.1883 56.2293 16.4008 56.4616 16.5744Z"/>
<path d="M62.5718 20.0938C62.5259 20.1382 62.4614 20.1925 62.3783 20.2567L59.7774 17.5678C59.5219 17.8876 59.4114 18.2426 59.4459 18.6329C59.4804 19.0231 59.6549 19.3808 59.9695 19.706C60.3526 20.102 60.7944 20.2919 61.2951 20.2756L61.228 20.9821C60.9077 21.0014 60.5939 20.9438 60.2864 20.8095C59.979 20.6752 59.6922 20.4705 59.426 20.1953C59.0873 19.8451 58.8588 19.465 58.7405 19.0549C58.6223 18.6448 58.6208 18.2407 58.7361 17.8427C58.8514 17.4447 59.0717 17.0885 59.3968 16.7739C59.7178 16.4634 60.0771 16.2551 60.4747 16.1489C60.8723 16.0427 61.265 16.0462 61.6528 16.1593C62.0406 16.2724 62.3877 16.4873 62.6942 16.8042C63.0006 17.121 63.2019 17.473 63.298 17.8602C63.3941 18.2473 63.3805 18.6358 63.2571 19.0254C63.1337 19.4151 62.9053 19.7712 62.5718 20.0938ZM62.1876 17.2941C61.9094 17.0065 61.589 16.8504 61.2264 16.8259C60.8638 16.8014 60.5246 16.9096 60.2089 17.1505L62.2654 19.2766C62.5125 18.9731 62.6308 18.6387 62.6205 18.2734C62.6102 17.9082 62.4659 17.5818 62.1876 17.2941Z"/>
<path d="M61.7748 22.9941C61.5521 22.6899 61.3789 22.3674 61.2552 22.0267C61.1316 21.6859 61.0747 21.3898 61.0845 21.1381L61.8236 21.0283C61.8265 21.2778 61.8786 21.5452 61.9797 21.8306C62.0808 22.116 62.2187 22.378 62.3934 22.6167C62.8251 23.2064 63.2094 23.3779 63.5464 23.1312C63.6587 23.0489 63.7185 22.9441 63.7258 22.8165C63.7331 22.689 63.7082 22.5545 63.6513 22.4128C63.5943 22.2712 63.5041 22.0768 63.3805 21.8294C63.208 21.4956 63.0828 21.2117 63.0049 20.9776C62.927 20.7435 62.9109 20.5055 62.9566 20.2636C63.0023 20.0217 63.1562 19.8048 63.4183 19.6129C63.7552 19.3662 64.1283 19.3088 64.5374 19.4405C64.9466 19.5723 65.3241 19.8745 65.6702 20.3472C65.8518 20.5952 66.0029 20.8655 66.1237 21.1581C66.2444 21.4507 66.3116 21.7142 66.3251 21.9487L65.5809 22.0514C65.5547 21.6034 65.3909 21.1734 65.0894 20.7616C64.8804 20.4761 64.6743 20.2927 64.4711 20.2115C64.2678 20.1303 64.089 20.1462 63.9346 20.2592C63.8129 20.3483 63.7478 20.4607 63.7393 20.5963C63.7307 20.7319 63.7555 20.8738 63.8135 21.0218C63.8716 21.1698 63.9617 21.3715 64.0841 21.627C64.2519 21.9642 64.3742 22.2466 64.451 22.4743C64.5279 22.702 64.544 22.9327 64.4996 23.1665C64.4551 23.4004 64.3065 23.6098 64.0538 23.7948C63.7169 24.0415 63.3436 24.0937 62.934 23.9515C62.5244 23.8093 62.138 23.4902 61.7748 22.9941Z"/>
<path d="M64.0417 26.6142C63.8185 26.2008 63.7088 25.7838 63.7125 25.3633C63.7162 24.9428 63.8255 24.5559 64.0402 24.2028C64.2549 23.8496 64.5613 23.5656 64.9594 23.3507C65.3576 23.1358 65.7631 23.0356 66.1762 23.0499C66.5893 23.0642 66.9713 23.1859 67.3224 23.415C67.6734 23.644 67.9604 23.9653 68.1836 24.3787C68.3819 24.7462 68.4849 25.1141 68.4925 25.4823C68.5002 25.8506 68.4063 26.1896 68.211 26.4994L67.5495 26.1347C67.6746 25.9024 67.7347 25.6657 67.7297 25.4245C67.7248 25.1833 67.6603 24.9478 67.5363 24.7182C67.3931 24.4527 67.2056 24.2458 66.9739 24.0974C66.7422 23.9489 66.4855 23.8732 66.2038 23.8704C65.9222 23.8675 65.641 23.9418 65.3603 24.0933C65.0744 24.2476 64.8554 24.4433 64.7032 24.6803C64.5511 24.9173 64.4734 25.1734 64.4704 25.4486C64.4673 25.7238 64.5374 25.994 64.6806 26.2595C64.8046 26.4891 64.966 26.6722 65.1649 26.8087C65.3638 26.9452 65.5947 27.025 65.8575 27.0479L65.807 27.7969C65.4409 27.7901 65.1047 27.6832 64.7985 27.4761C64.4923 27.269 64.24 26.9817 64.0417 26.6142Z"/>
<path d="M68.8636 27.7967C69.165 27.8335 69.4327 27.9586 69.6665 28.1718C69.9004 28.3849 70.0919 28.6804 70.241 29.058L69.4885 29.3552C69.4769 29.3099 69.4561 29.2495 69.4263 29.174C69.2601 28.7532 69.0042 28.4723 68.6585 28.3313C68.3129 28.1904 67.9081 28.2115 67.4441 28.3947L65.3079 29.2384L65.0011 28.4616L69.2897 26.7678L69.5838 27.5122L68.8636 27.7967Z"/>
<path d="M70.417 29.8352L70.6583 30.6348L66.2438 31.9667L66.0026 31.1671L70.417 29.8352ZM71.3872 29.9786C71.3403 29.8232 71.3513 29.679 71.4203 29.5461C71.4892 29.4132 71.5959 29.325 71.7403 29.2814C71.8847 29.2379 72.0237 29.252 72.1574 29.3237C72.2911 29.3954 72.3815 29.509 72.4284 29.6645C72.4753 29.82 72.4656 29.9637 72.3995 30.0958C72.3333 30.2278 72.228 30.3156 72.0836 30.3592C71.9337 30.4044 71.7919 30.3912 71.6582 30.3194C71.5245 30.2477 71.4341 30.1341 71.3872 29.9786Z"/>
<path d="M71.6044 34.7458C71.6757 35.1866 71.6423 35.5974 71.5041 35.9782C71.3659 36.3589 71.1382 36.6763 70.8208 36.9303C70.5035 37.1844 70.1159 37.3484 69.6578 37.4225C69.1998 37.4966 68.7787 37.4633 68.3946 37.3228C68.0105 37.1822 67.6929 36.953 67.4418 36.6352C67.1906 36.3175 67.0294 35.9381 66.9581 35.4973C66.9053 35.1709 66.9199 34.8616 67.0018 34.5692C67.0838 34.2769 67.2298 34.0168 67.4397 33.789L65.0865 34.1696L64.9531 33.3451L71.1711 32.3394L71.2989 33.1295L70.5775 33.2462C70.859 33.3887 71.0869 33.5897 71.2611 33.8495C71.4353 34.1092 71.5497 34.4079 71.6044 34.7458ZM67.6684 35.3119C67.7156 35.6039 67.8253 35.8549 67.9973 36.0651C68.1694 36.2752 68.3879 36.4279 68.653 36.523C68.9181 36.6182 69.2082 36.6404 69.5231 36.5894C69.838 36.5385 70.1062 36.4261 70.3278 36.2522C70.5494 36.0783 70.7072 35.8647 70.8014 35.6115C70.8956 35.3583 70.9191 35.0857 70.8718 34.7937C70.8255 34.5075 70.7164 34.2593 70.5443 34.0491C70.3722 33.839 70.1551 33.6861 69.8929 33.5905C69.6306 33.4948 69.342 33.4724 69.0271 33.5234C68.7122 33.5743 68.4438 33.6853 68.2217 33.8564C67.9997 34.0274 67.8404 34.2412 67.7438 34.4977C67.6472 34.7542 67.6221 35.0256 67.6684 35.3119Z"/>
<path d="M67.6369 40.4996C67.5289 40.381 67.4446 40.2326 67.3841 40.0546C67.3236 39.8765 67.2905 39.6919 67.2847 39.5005C67.2707 39.0367 67.3845 38.6736 67.6261 38.4109C67.8677 38.1483 68.2204 38.01 68.6842 37.996L71.2147 37.9197L71.1911 37.137L71.8781 37.1163L71.9017 37.899L72.9104 37.8685L72.9356 38.7033L71.9269 38.7338L71.9668 40.0556L71.2798 40.0763L71.2399 38.7545L68.7441 38.8298C68.4949 38.8373 68.3054 38.9054 68.1758 39.0341C68.0463 39.1628 67.985 39.343 67.992 39.5749C67.9997 39.83 68.0787 40.0452 68.2291 40.2206L67.6369 40.4996Z"/>
<path d="M69.9041 43.347L69.5537 45.661L68.8398 45.5528L69.1902 43.2389L69.9041 43.347Z"/>
<path d="M67.3796 53.4214L67.062 54.1939L64.8654 53.2905C64.7494 52.9167 64.7059 52.5194 64.7347 52.0985C64.7636 51.6777 64.8607 51.2661 65.0261 50.8638C65.26 50.2952 65.5954 49.8342 66.0323 49.4808C66.4692 49.1275 66.9598 48.9106 67.504 48.8302C68.0481 48.7498 68.5938 48.8222 69.1409 49.0472C69.6881 49.2722 70.1281 49.6052 70.4609 50.0463C70.7938 50.4873 70.9893 50.9879 71.0474 51.548C71.1056 52.1081 71.0166 52.6751 70.7806 53.2491C70.5953 53.6997 70.3533 54.0784 70.0547 54.3851C69.7561 54.6919 69.4117 54.9156 69.0215 55.0561L68.7278 54.3521C69.3476 54.0802 69.7887 53.6251 70.0512 52.9868C70.2277 52.5577 70.2935 52.1347 70.2485 51.718C70.2035 51.3013 70.0558 50.9285 69.8053 50.5997C69.5548 50.271 69.2231 50.0216 68.81 49.8518C68.4023 49.6841 67.9939 49.629 67.5845 49.6865C67.1752 49.7439 66.8067 49.9043 66.4788 50.1677C66.151 50.4312 65.9 50.7747 65.7257 51.1985C65.5183 51.7027 65.4581 52.1922 65.5451 52.667L67.3796 53.4214Z"/>
<path d="M62.9243 54.8844C63.1685 54.4966 63.4643 54.1603 63.8117 53.8752C64.1591 53.5902 64.4934 53.4049 64.8146 53.3193L65.2173 53.9533C64.917 54.0384 64.615 54.1995 64.3115 54.4367C64.0079 54.6739 63.7541 54.9545 63.5501 55.2784C63.2812 55.7054 63.1527 56.07 63.1646 56.3722C63.1765 56.6744 63.3027 56.9013 63.5432 57.0527C63.7199 57.164 63.8998 57.1967 64.0828 57.1509C64.2659 57.1051 64.4402 57.0161 64.6057 56.8838C64.7712 56.7516 64.9881 56.5541 65.2565 56.2912C65.5939 55.9622 65.8841 55.708 66.1273 55.5287C66.3704 55.3494 66.6422 55.2361 66.9427 55.1889C67.2432 55.1416 67.5579 55.2215 67.8867 55.4286C68.1616 55.6017 68.3638 55.8301 68.4935 56.114C68.6232 56.3979 68.6616 56.7288 68.6087 57.1067C68.5558 57.4846 68.3918 57.892 68.1167 58.3288C67.9251 58.6331 67.6973 58.9077 67.4333 59.1528C67.1694 59.3978 66.8973 59.5795 66.6172 59.6978L66.1812 59.084C66.4546 58.9546 66.7042 58.7896 66.9299 58.589C67.1556 58.3884 67.3426 58.1703 67.4909 57.9347C67.7536 57.5176 67.8746 57.1568 67.8538 56.8524C67.833 56.548 67.7023 56.3201 67.4619 56.1686C67.2852 56.0574 67.1045 56.0259 66.9199 56.0741C66.7353 56.1224 66.5575 56.2143 66.3864 56.3499C66.2153 56.4855 66.0012 56.6814 65.744 56.9375C65.4066 57.2665 65.1171 57.5194 64.8755 57.6963C64.6339 57.8732 64.364 57.986 64.066 58.0348C63.768 58.0836 63.457 58.006 63.1331 57.802C62.8631 57.632 62.6628 57.4031 62.5322 57.1152C62.4017 56.8274 62.3656 56.4928 62.424 56.1115C62.4825 55.7302 62.6493 55.3212 62.9243 54.8844Z"/>
<path d="M60.0488 61.0767L62.2188 58.6756L61.5385 57.1578L62.1393 56.493L64.8083 62.6224L64.2308 63.2614L57.8576 61.2306L58.4701 60.5529L60.0488 61.0767ZM60.7693 61.3175L63.8641 62.3437L62.531 59.3682L60.7693 61.3175Z"/>
<path d="M59.7579 67.3142C59.1317 67.7939 58.5245 68.0217 57.9361 67.9975C57.3477 67.9733 56.8524 67.6988 56.4503 67.1739C56.0482 66.649 55.9121 66.0994 56.042 65.525C56.1719 64.9506 56.5499 64.4236 57.1761 63.9439L58.3709 63.0286L57.2493 61.5644L57.94 61.0354L61.6434 65.8699L59.7579 67.3142ZM57.6571 64.5289C57.2197 64.8639 56.9573 65.2129 56.8699 65.5757C56.7826 65.9385 56.8729 66.2949 57.141 66.6449C57.409 66.9948 57.7296 67.1748 58.1027 67.1849C58.4757 67.195 58.881 67.0326 59.3184 66.6975L60.4925 65.7981L58.8312 63.6295L57.6571 64.5289Z"/>
<path d="M53.2501 67.5185L51.1337 68.5175L50.8255 67.8645L52.9418 66.8655L53.2501 67.5185Z"/>
<path d="M43.5221 69.458L46.6858 68.7759L47.0198 67.1464L47.8957 66.9575L46.4833 73.492L45.6414 73.6735L41.6534 68.3034L42.5464 68.1109L43.5221 69.458ZM43.9664 70.0742L45.8796 72.7144L46.5348 69.5204L43.9664 70.0742Z"/>
<path d="M39.264 68.2675L40.6968 69.9521L41.939 68.1097L42.8682 68.0549L41.1919 70.5156L43.0528 72.6631L42.1236 72.7179L40.7577 71.1338L39.5962 72.8669L38.6843 72.9207L40.2887 70.5688L38.3174 68.3233L39.264 68.2675Z"/>
<path d="M38.0652 72.8426L37.2306 72.8115L37.4022 68.2037L38.2368 68.2348L38.0652 72.8426ZM37.6149 73.7138C37.7771 73.7199 37.91 73.7771 38.0133 73.8854C38.1166 73.9937 38.1655 74.1232 38.1599 74.2739C38.1543 74.4246 38.0959 74.5516 37.9847 74.6548C37.8734 74.758 37.7367 74.8066 37.5744 74.8006C37.4121 74.7945 37.2792 74.7388 37.1758 74.6334C37.0723 74.528 37.0234 74.3999 37.029 74.2492C37.0349 74.0927 37.0934 73.9629 37.2046 73.8596C37.3158 73.7564 37.4526 73.7078 37.6149 73.7138Z"/>
<path d="M34.2839 67.8148C34.7362 67.8885 35.1263 68.055 35.4542 68.3141C35.7822 68.5733 36.0191 68.8955 36.1649 69.2807C36.3107 69.6659 36.3472 70.0817 36.2743 70.5282C36.2015 70.9747 36.0348 71.3574 35.7742 71.6763C35.5135 71.9952 35.1868 72.224 34.794 72.3627C34.4011 72.5014 33.9786 72.5338 33.5264 72.4601C33.0741 72.3863 32.6852 72.2216 32.3597 71.9657C32.0341 71.7099 31.7984 71.3894 31.6526 71.0042C31.5068 70.619 31.4703 70.2031 31.5431 69.7566C31.616 69.3101 31.7827 68.9274 32.0433 68.6085C32.3039 68.2896 32.6295 68.0592 33.0199 67.9171C33.4104 67.7751 33.8317 67.741 34.2839 67.8148ZM34.1663 68.536C33.8744 68.4884 33.6015 68.513 33.3477 68.6097C33.094 68.7064 32.8814 68.8657 32.7101 69.0875C32.5387 69.3093 32.4274 69.5776 32.376 69.8925C32.3247 70.2073 32.345 70.4971 32.437 70.7619C32.529 71.0266 32.6802 71.2437 32.8905 71.4132C33.1009 71.5827 33.352 71.6912 33.644 71.7388C33.9359 71.7864 34.2086 71.7633 34.4619 71.6695C34.7152 71.5756 34.9289 71.418 35.1031 71.1967C35.2773 70.9753 35.3901 70.7072 35.4414 70.3924C35.4928 70.0775 35.471 69.7875 35.3762 69.5223C35.2813 69.2571 35.129 69.0383 34.9191 68.866C34.7092 68.6936 34.4582 68.5836 34.1663 68.536Z"/>
<path d="M30.4992 66.9258C30.8591 67.038 31.1901 67.1943 31.4922 67.3947C31.7942 67.5951 32.0161 67.7994 32.1578 68.0076L31.6289 68.5353C31.4782 68.3365 31.2773 68.1524 31.0264 67.9831C30.7754 67.8138 30.5087 67.6851 30.2263 67.5971C29.5285 67.3797 29.1176 67.4704 28.9933 67.8691C28.9519 68.002 28.9662 68.1218 29.0362 68.2287C29.1062 68.3355 29.2062 68.429 29.3362 68.509C29.4661 68.5889 29.6544 68.6916 29.9008 68.817C30.238 68.9828 30.5075 69.1367 30.7093 69.2785C30.9111 69.4204 31.0656 69.6022 31.1727 69.8239C31.2798 70.0456 31.285 70.3115 31.1884 70.6216C31.0642 71.0202 30.7984 71.2883 30.3911 71.4256C29.9838 71.563 29.5005 71.5445 28.9412 71.3703C28.6478 71.2788 28.3655 71.1514 28.0944 70.9879C27.8234 70.8245 27.6127 70.6526 27.4624 70.4721L27.9996 69.9469C28.2871 70.2916 28.6745 70.5399 29.1618 70.6917C29.4996 70.797 29.7743 70.8219 29.986 70.7663C30.1977 70.7108 30.332 70.5916 30.389 70.4089C30.4338 70.2649 30.4194 70.1359 30.3456 70.0218C30.2718 69.9077 30.1676 69.8084 30.0329 69.7239C29.8982 69.6394 29.7058 69.5308 29.4555 69.3982C29.1201 69.2268 28.8538 69.0725 28.6566 68.9351C28.4595 68.7977 28.3092 68.6218 28.206 68.4074C28.1027 68.193 28.0976 67.9362 28.1908 67.6372C28.315 67.2385 28.5841 66.9746 28.9979 66.8453C29.4118 66.7161 29.9122 66.7429 30.4992 66.9258Z"/>
<path d="M25.1667 67.8375L23.1057 66.7288L23.4478 66.0929L25.5088 67.2015L25.1667 67.8375Z"/>
<path d="M15.9387 65.597C15.346 65.0764 15.0042 64.5252 14.9131 63.9434C14.822 63.3616 14.9946 62.8223 15.431 62.3256C15.8674 61.8288 16.3799 61.5881 16.9686 61.6034C17.5573 61.6187 18.1479 61.8867 18.7406 62.4073L19.8714 63.4006L21.0886 62.0149L21.7422 62.589L17.7231 67.1645L15.9387 65.597ZM18.2607 62.9932C17.8467 62.6295 17.4533 62.4402 17.0804 62.4253C16.7075 62.4104 16.3755 62.5686 16.0846 62.8997C15.7937 63.2309 15.6797 63.5804 15.7426 63.9483C15.8054 64.3162 16.0438 64.6819 16.4578 65.0456L17.569 66.0216L19.3718 63.9692L18.2607 62.9932Z"/>
<path d="M14.7211 62.3449L14.1591 61.7271L17.57 58.6243L18.132 59.2422L14.7211 62.3449ZM13.7836 62.6331C13.8929 62.7532 13.945 62.8881 13.94 63.0377C13.935 63.1874 13.8767 63.3129 13.7651 63.4144C13.6536 63.5158 13.522 63.563 13.3704 63.5558C13.2188 63.5487 13.0884 63.485 12.9791 63.3649C12.8699 63.2447 12.8167 63.1108 12.8196 62.9632C12.8224 62.8155 12.8797 62.6909 12.9912 62.5894C13.107 62.4841 13.2408 62.435 13.3923 62.4421C13.5439 62.4493 13.6743 62.513 13.7836 62.6331Z"/>
<path d="M11.5228 58.4119C11.1888 57.9307 11.0627 57.4516 11.1447 56.9746C11.2266 56.4977 11.5368 56.0723 12.0752 55.6986L14.255 54.1855L14.7312 54.8716L12.6301 56.3301C12.2632 56.5848 12.048 56.8648 11.9846 57.17C11.9211 57.4753 12.0035 57.7923 12.2317 58.1211C12.4897 58.4927 12.8015 58.7105 13.1671 58.7744C13.5327 58.8384 13.918 58.7297 14.323 58.4486L16.2741 57.0943L16.7504 57.7804L12.9625 60.4097L12.5061 59.7522L13.0779 59.3553C12.7866 59.3527 12.5067 59.2699 12.2382 59.1068C11.9696 58.9437 11.7312 58.7121 11.5228 58.4119Z"/>
<path d="M10.016 55.8945L9.61817 55.1601L13.6724 52.9636L14.0703 53.698L10.016 55.8945ZM9.03685 55.95C9.11421 56.0928 9.13255 56.2362 9.09186 56.3803C9.05118 56.5244 8.96455 56.6323 8.83196 56.7042C8.69937 56.776 8.56034 56.7903 8.41488 56.7471C8.26943 56.7038 8.15802 56.6108 8.08066 56.468C8.0033 56.3253 7.98368 56.1825 8.02182 56.0398C8.05995 55.8971 8.14531 55.7899 8.2779 55.718C8.41559 55.6434 8.55716 55.6277 8.70262 55.671C8.84808 55.7142 8.95949 55.8072 9.03685 55.95Z"/>
<path d="M8.15753 52.0936C7.92276 51.5004 7.88856 50.9884 8.05492 50.5576C8.22129 50.1269 8.593 49.7973 9.17006 49.569L11.7587 48.5445L12.05 49.2806L11.4838 49.5047C11.7345 49.5552 11.96 49.6796 12.1601 49.878C12.3603 50.0764 12.5254 50.34 12.6556 50.669C12.8456 51.149 12.8817 51.5791 12.764 51.9594C12.6463 52.3397 12.3987 52.6046 12.0211 52.754C11.6436 52.9034 11.2858 52.8859 10.9478 52.7016C10.6097 52.5173 10.3223 52.1258 10.0854 51.5271L9.59874 50.2975L9.44504 50.3584C9.11067 50.4907 8.89292 50.6891 8.79178 50.9537C8.69065 51.2183 8.71478 51.5393 8.86418 51.9169C8.96449 52.1703 9.10446 52.4019 9.2841 52.6115C9.46373 52.8211 9.65674 52.9817 9.86312 53.0934L9.40873 53.6475C9.14326 53.4968 8.9025 53.2865 8.68647 53.0164C8.47044 52.7464 8.29412 52.4387 8.15753 52.0936ZM12.0058 50.7765C11.8884 50.4799 11.721 50.2499 11.5035 50.0864C11.286 49.923 11.0366 49.8408 10.7555 49.8397L10.1569 50.0766L10.6307 51.2739C10.8911 51.9318 11.2424 52.1733 11.6846 51.9983C11.9004 51.9129 12.0372 51.7621 12.095 51.5458C12.1529 51.3296 12.1232 51.0731 12.0058 50.7765Z"/>
<path d="M8.38706 46.4296L7.97849 44.1252L8.6895 43.9992L9.09807 46.3035L8.38706 46.4296Z"/>
</g>
</g>
</g>
</svg>
